<?xml version="1.0" standalone="no"?>
<!DOCTYPE svg PUBLIC "-//W3C//DTD SVG 20010904//EN"
 "http://www.w3.org/TR/2001/REC-SVG-20010904/DTD/svg10.dtd">
<svg version="1.0" xmlns="http://www.w3.org/2000/svg"
 width="1128.000000pt" height="533.000000pt" viewBox="0 0 128.000000 128.000000"
 preserveAspectRatio="xMidYMid meet">
<metadata>
Created by potrace 1.10, written by Peter Selinger 2001-2011
</metadata>
<g transform="translate(0.000000,128.000000) scale(0.100000,-0.100000)"
fill="#000000" stroke="none">
<path d="M62 1270 c66 -8 105 -30 118 -66 6 -14 10 -164 10 -340 0 -173 3
-314 6 -314 16 0 64 44 83 75 l20 35 -32 1 c-18 0 -41 4 -52 9 -19 8 -19 9 3
9 12 1 32 11 44 23 l22 22 -35 10 -34 9 38 7 c53 10 58 20 9 20 -23 0 -42 5
-42 10 0 6 10 10 23 10 26 0 54 16 45 25 -3 4 -16 1 -28 -5 -54 -29 -28 36 27
67 l35 20 -36 7 c-45 9 -57 26 -18 26 19 0 40 10 58 29 16 15 38 33 49 40 18
10 17 11 -7 5 -16 -3 -36 -3 -45 0 -13 5 1 16 52 41 52 24 78 45 101 77 17 24
51 55 78 69 27 15 57 41 68 58 l20 31 -319 -1 c-186 -1 -294 -5 -261 -9z"/>
<path d="M678 1251 c-3 -21 1 -32 12 -38 9 -4 59 -54 110 -111 51 -56 115
-119 142 -138 51 -38 59 -61 30 -87 -30 -28 -82 -31 -108 -6 -16 15 -33 20
-61 19 -21 -2 -59 -3 -85 -4 -52 -1 -58 -8 -58 -82 0 -31 7 -51 31 -80 18 -22
44 -66 59 -99 16 -33 36 -67 46 -76 25 -22 75 -32 156 -31 50 1 72 -3 88 -16
22 -18 22 -20 10 -93 -17 -94 -22 -105 -69 -128 -21 -11 -45 -31 -54 -45 -9
-13 -31 -27 -49 -31 -18 -4 -37 -11 -43 -15 -5 -4 -31 -14 -58 -23 l-47 -16 6
42 c9 67 9 67 66 67 44 1 50 2 33 12 -11 6 -21 12 -23 13 -1 1 5 16 14 33 11
24 22 32 42 32 24 1 25 2 9 11 -14 8 -37 7 -85 -2 -58 -11 -73 -18 -112 -57
-25 -25 -70 -57 -100 -71 -50 -24 -68 -26 -190 -28 -74 -1 -148 -6 -165 -11
-28 -8 -29 -11 -26 -51 4 -63 -15 -100 -63 -122 -41 -18 -37 -19 427 -19 l468
0 47 24 c69 35 124 87 157 147 28 50 30 62 30 154 0 116 -14 154 -81 222 -50
50 -84 68 -188 104 l-79 26 54 18 c106 34 178 91 215 170 61 129 1 300 -135
387 -45 28 -46 28 -207 28 l-162 0 -4 -29z"/>
<path d="M911 441 c-11 -7 -9 -10 8 -16 11 -3 24 -17 27 -31 9 -36 24 -29 24
11 0 19 -4 35 -9 35 -5 0 -15 2 -23 5 -7 3 -19 1 -27 -4z"/>
</g>
</svg>
