<?xml version="1.0" standalone="no"?>
<!DOCTYPE svg PUBLIC "-//W3C//DTD SVG 20010904//EN"
 "http://www.w3.org/TR/2001/REC-SVG-20010904/DTD/svg10.dtd">
<svg version="1.0" xmlns="http://www.w3.org/2000/svg"
 width="1156.000000pt" height="453.000000pt" viewBox="0 0 256.000000 53.000000"
 preserveAspectRatio="xMidYMid meet">
<metadata>
Created by potrace 1.10, written by Peter Selinger 2001-2011
</metadata>
<g transform="translate(0.000000,53.000000) scale(0.100000,-0.100000)"
fill="#000000" stroke="none">
<path d="M10 480 c0 -5 13 -10 30 -10 38 0 43 -19 38 -143 -2 -69 0 -93 9 -90
15 6 25 33 12 33 -6 0 -6 7 1 19 7 14 7 22 0 26 -8 5 -7 11 1 21 6 8 8 14 3
14 -5 0 -1 5 9 11 9 6 15 14 12 19 -3 5 4 14 15 20 11 6 36 26 55 45 36 37 45
42 45 25 0 -6 25 -35 55 -65 51 -49 54 -55 37 -64 -13 -7 -22 -7 -29 0 -16 16
-67 7 -71 -12 -3 -18 46 -98 62 -101 6 -1 25 -2 41 -2 28 -1 30 -3 27 -36 -4
-37 -18 -52 -71 -75 -42 -19 -40 -19 -34 5 3 11 12 20 19 20 8 0 14 6 14 14 0
8 6 17 12 20 7 3 0 2 -17 -1 -16 -3 -43 -17 -58 -30 -23 -18 -40 -23 -87 -23
-57 0 -59 -1 -62 -28 -2 -21 -10 -29 -35 -37 -18 -5 -33 -12 -33 -15 0 -4 70
-5 156 -3 127 2 163 6 199 22 110 49 95 177 -24 211 l-26 7 35 15 c43 18 58
36 65 74 8 39 -26 91 -70 110 -41 17 -335 21 -335 4z"/>
<path d="M470 369 c0 -4 7 -9 15 -13 12 -4 15 -29 15 -136 0 -107 -3 -132 -15
-136 -33 -13 -12 -24 45 -24 33 0 60 4 60 10 0 6 -4 10 -10 10 -5 0 -11 60
-12 146 l-3 146 -47 2 c-27 1 -48 -1 -48 -5z"/>
<path d="M1080 368 c0 -5 5 -8 10 -8 6 0 10 -53 10 -140 0 -87 -4 -140 -10
-140 -5 0 -10 -4 -10 -10 0 -6 27 -10 60 -10 57 0 78 11 45 24 -15 5 -21 57
-8 69 10 11 53 -60 47 -77 -5 -13 3 -16 50 -16 31 0 56 5 56 10 0 6 -4 10 -9
10 -4 0 -27 28 -49 62 l-41 63 26 27 c15 16 32 28 39 28 7 0 16 5 19 10 4 6
-16 10 -52 10 -53 -1 -56 -2 -38 -15 19 -15 18 -16 -18 -53 l-37 -37 0 100 0
100 -45 0 c-25 0 -45 -3 -45 -7z"/>
<path d="M1871 359 c-12 -11 -24 -34 -28 -50 -3 -16 -12 -29 -19 -29 -8 0 -14
-7 -14 -15 0 -8 7 -15 15 -15 12 0 15 -16 15 -85 0 -69 -3 -85 -15 -85 -8 0
-15 -4 -15 -10 0 -6 28 -10 65 -10 37 0 65 4 65 10 0 6 -7 10 -15 10 -12 0
-15 16 -15 85 0 69 3 85 15 85 8 0 15 7 15 15 0 8 -7 15 -15 15 -11 0 -15 11
-15 40 0 42 14 54 23 20 6 -24 45 -27 53 -5 17 44 -73 63 -115 24z"/>
<path d="M2035 355 c-14 -13 -25 -36 -25 -50 0 -16 -6 -25 -15 -25 -8 0 -15
-7 -15 -15 0 -8 7 -15 15 -15 12 0 15 -16 15 -85 0 -69 -3 -85 -15 -85 -8 0
-15 -4 -15 -10 0 -6 28 -10 65 -10 37 0 65 4 65 10 0 6 -7 10 -15 10 -12 0
-15 16 -15 85 0 69 3 85 15 85 8 0 15 7 15 15 0 8 -7 15 -15 15 -11 0 -15 11
-15 40 0 22 5 40 10 40 6 0 10 -9 10 -20 0 -15 7 -20 25 -20 14 0 28 7 31 15
18 47 -79 63 -121 20z"/>
<path d="M684 279 c-39 -11 -56 -31 -52 -61 4 -28 39 -36 58 -13 10 12 10 18
0 30 -10 12 -9 16 4 21 26 10 46 -3 46 -30 0 -19 -10 -30 -46 -48 -60 -30 -81
-60 -66 -93 14 -29 50 -33 86 -10 21 14 24 14 29 0 7 -17 39 -20 68 -5 23 13
25 30 4 30 -12 0 -15 16 -15 80 0 78 -1 80 -30 95 -32 17 -41 17 -86 4z m44
-170 c-36 -23 -49 13 -17 47 l24 26 3 -33 c2 -19 -2 -35 -10 -40z"/>
<path d="M935 281 c-47 -20 -79 -87 -68 -142 15 -75 101 -105 160 -55 34 30
28 40 -15 24 -28 -11 -34 -10 -52 8 -12 11 -23 37 -27 57 -12 75 24 120 46 56
14 -41 54 -38 59 4 3 23 -2 30 -32 42 -40 17 -43 17 -71 6z"/>
<path d="M1414 276 c-32 -14 -64 -67 -64 -105 0 -34 26 -88 48 -100 38 -20 91
-13 120 16 27 27 16 47 -13 23 -23 -19 -61 -4 -74 28 -17 40 -11 116 9 120 9
1 20 -10 27 -28 9 -25 17 -31 35 -28 29 4 35 38 11 60 -27 24 -64 29 -99 14z"/>
<path d="M1633 280 c-54 -22 -78 -111 -48 -170 19 -37 43 -50 93 -50 57 0 92
42 92 111 0 39 -5 55 -27 79 -30 33 -75 45 -110 30z m65 -108 c2 -70 0 -83
-14 -89 -26 -10 -44 24 -44 81 0 75 9 98 34 94 19 -3 21 -10 24 -86z"/>
<path d="M2214 280 c-58 -23 -83 -114 -49 -179 16 -33 33 -41 81 -41 34 0 84
35 84 60 0 15 -20 12 -26 -5 -4 -9 -19 -15 -36 -15 -24 0 -32 6 -44 35 -7 19
-14 37 -14 41 0 3 27 4 60 2 52 -3 60 -1 60 15 0 31 -30 77 -56 87 -29 12 -32
12 -60 0z m50 -36 c13 -33 6 -44 -24 -44 -32 0 -36 9 -20 41 13 23 36 25 44 3z"/>
<path d="M2484 265 c-30 -30 -34 -31 -27 -5 5 18 0 20 -48 20 -47 -1 -52 -2
-36 -14 14 -11 17 -29 17 -96 0 -67 -3 -85 -17 -96 -16 -12 -9 -13 50 -14 38
0 67 4 67 10 0 6 -7 10 -15 10 -12 0 -15 13 -15 61 0 75 13 104 39 87 10 -6
26 -8 35 -5 21 8 21 53 0 61 -22 9 -22 9 -50 -19z"/>
</g>
</svg>
